<svg width="34" height="33" viewBox="0 0 34 33" fill="none" xmlns="http://www.w3.org/2000/svg">
<g clip-path="url(#clip0_252_1346)">
<path d="M6 8.25H28V22H6M28 24.75C28.7293 24.75 29.4288 24.4603 29.9445 23.9445C30.4603 23.4288 30.75 22.7293 30.75 22V8.25C30.75 7.52065 30.4603 6.82118 29.9445 6.30546C29.4288 5.78973 28.7293 5.5 28 5.5H6C4.47375 5.5 3.25 6.72375 3.25 8.25V22C3.25 22.7293 3.53973 23.4288 4.05546 23.9445C4.57118 24.4603 5.27065 24.75 6 24.75H0.5V27.5H33.5V24.75H28Z" fill="#4B4B4B"/>
</g>
<defs>
<clipPath id="clip0_252_1346">
<rect width="33" height="33" fill="white" transform="translate(0.5)"/>
</clipPath>
</defs>
</svg>
