<svg width="30" height="31" viewBox="0 0 30 31" fill="none" xmlns="http://www.w3.org/2000/svg">
<path d="M25.0171 8.69335L6.62836 0.627974C6.44633 0.54783 6.25016 0.504443 6.05119 0.500324C5.85222 0.496204 5.65441 0.531434 5.46919 0.603974C5.28412 0.676848 5.11539 0.785558 4.97275 0.923817C4.83012 1.06208 4.7164 1.22714 4.6382 1.40946L0.121939 11.9093C-0.035328 12.2749 -0.0404141 12.6878 0.1078 13.0571C0.256014 13.4264 0.54539 13.722 0.912284 13.8788L11.3855 18.3502L9.51877 23.0001H3.01084V18.5002H0V30.5H3.01084V26.0001H9.51877C10.7577 26.0001 11.8552 25.2591 12.3128 24.1131L14.1524 19.5322L19.2995 21.7296C19.6648 21.886 20.0773 21.8921 20.447 21.7466C20.8168 21.601 21.1138 21.3156 21.2731 20.9527L25.7893 10.6673C25.9491 10.3034 25.9576 9.89129 25.8128 9.52124C25.668 9.15119 25.3818 8.85346 25.0171 8.69335ZM26.9922 22.0581L24.1951 20.9452L27.2029 13.4453L30 14.5568L26.9922 22.0581Z" fill="#4B4B4B"/>
</svg>
