<svg width="41" height="40" viewBox="0 0 41 40" fill="none" xmlns="http://www.w3.org/2000/svg">
<path d="M36.1437 2.6782C35.9587 2.56713 35.748 2.50588 35.5322 2.5004C35.3165 2.49493 35.103 2.54541 34.9125 2.64695L16.4375 12.5001H5.5C4.83696 12.5001 4.20107 12.7635 3.73223 13.2323C3.26339 13.7011 3 14.337 3 15.0001V31.2501C3 31.9131 3.26339 32.549 3.73223 33.0178C4.20107 33.4867 4.83696 33.7501 5.5 33.7501H19.25C19.913 33.7501 20.5489 33.4867 21.0178 33.0178C21.4866 32.549 21.75 31.9131 21.75 31.2501V26.2501C21.75 26.1951 21.7458 26.1403 21.7375 26.086V26.0485C21.7287 25.9959 21.7172 25.9437 21.7031 25.8923C21.7038 25.8897 21.7038 25.887 21.7031 25.8844V25.8735L18.2406 14.3751L34.25 5.83288V25.0001H31.75V23.7501C31.75 23.4186 31.6183 23.1006 31.3839 22.8662C31.1495 22.6318 30.8315 22.5001 30.5 22.5001C30.1685 22.5001 29.8505 22.6318 29.6161 22.8662C29.3817 23.1006 29.25 23.4186 29.25 23.7501V25.0001C29.25 25.6631 29.5134 26.299 29.9822 26.7678C30.4511 27.2367 31.087 27.5001 31.75 27.5001H34.25C34.913 27.5001 35.5489 27.2367 36.0178 26.7678C36.4866 26.299 36.75 25.6631 36.75 25.0001V3.75007C36.7501 3.53427 36.6943 3.32213 36.588 3.1343C36.4818 2.94646 36.3287 2.78933 36.1437 2.6782ZM8 15.0001V25.0001H5.5V15.0001H8ZM5.5 31.2501V27.5001H19.25V31.2501H5.5Z" fill="#4B4B4B"/>
</svg>
