<svg width="35" height="25" viewBox="0 0 35 25" fill="none" xmlns="http://www.w3.org/2000/svg">
<path d="M17.5 24.5C16.4792 24.5 15.6163 24.1588 14.9115 23.4765C14.2066 22.7941 13.8542 21.9588 13.8542 20.9706C13.8542 19.9824 14.2066 19.1471 14.9115 18.4647C15.6163 17.7824 16.4792 17.4412 17.5 17.4412C18.5208 17.4412 19.3837 17.7824 20.0885 18.4647C20.7934 19.1471 21.1458 19.9824 21.1458 20.9706C21.1458 21.9588 20.7934 22.7941 20.0885 23.4765C19.3837 24.1588 18.5208 24.5 17.5 24.5ZM9.26042 16.5235L6.19792 13.4882C7.63194 12.1 9.31535 11.0002 11.2481 10.1889C13.1809 9.37765 15.2649 8.97153 17.5 8.97059C19.7351 8.96965 21.8196 9.38141 23.7533 10.2059C25.6871 11.0304 27.37 12.148 28.8021 13.5588L25.7396 16.5235C24.6701 15.4882 23.4306 14.6765 22.0208 14.0882C20.6111 13.5 19.1042 13.2059 17.5 13.2059C15.8958 13.2059 14.3889 13.5 12.9792 14.0882C11.5694 14.6765 10.3299 15.4882 9.26042 16.5235ZM3.0625 10.5235L0 7.55882C2.23611 5.34706 4.84896 3.61765 7.83854 2.37059C10.8281 1.12353 14.0486 0.5 17.5 0.5C20.9514 0.5 24.1719 1.12353 27.1615 2.37059C30.151 3.61765 32.7639 5.34706 35 7.55882L31.9375 10.5235C30.066 8.71177 27.8969 7.29435 25.4304 6.27129C22.9639 5.24824 20.3204 4.73624 17.5 4.73529C14.6796 4.73435 12.0366 5.24635 9.57104 6.27129C7.10549 7.29624 4.93597 8.71365 3.0625 10.5235Z" fill="#4B4B4B"/>
</svg>
