<svg width="45" height="46" viewBox="0 0 45 46" fill="none" xmlns="http://www.w3.org/2000/svg">
<path d="M13.2812 24.3438L15.7422 16.9609H33.7891L36.25 24.3438M33.7891 32.5469C33.1364 32.5469 32.5104 32.2876 32.0489 31.8261C31.5874 31.3646 31.3281 30.7386 31.3281 30.0859C31.3281 29.4333 31.5874 28.8073 32.0489 28.3458C32.5104 27.8843 33.1364 27.625 33.7891 27.625C34.4417 27.625 35.0677 27.8843 35.5292 28.3458C35.9907 28.8073 36.25 29.4333 36.25 30.0859C36.25 30.7386 35.9907 31.3646 35.5292 31.8261C35.0677 32.2876 34.4417 32.5469 33.7891 32.5469ZM15.7422 32.5469C15.0895 32.5469 14.4636 32.2876 14.002 31.8261C13.5405 31.3646 13.2812 30.7386 13.2812 30.0859C13.2812 29.4333 13.5405 28.8073 14.002 28.3458C14.4636 27.8843 15.0895 27.625 15.7422 27.625C16.3949 27.625 17.0208 27.8843 17.4823 28.3458C17.9438 28.8073 18.2031 29.4333 18.2031 30.0859C18.2031 30.7386 17.9438 31.3646 17.4823 31.8261C17.0208 32.2876 16.3949 32.5469 15.7422 32.5469ZM36.1187 16.1406C35.7906 15.1891 34.8719 14.5 33.7891 14.5H15.7422C14.6594 14.5 13.7406 15.1891 13.4125 16.1406L10 25.9844V39.1094C10 39.5445 10.1729 39.9618 10.4805 40.2695C10.7882 40.5772 11.2055 40.75 11.6406 40.75H13.2812C13.7164 40.75 14.1337 40.5772 14.4413 40.2695C14.749 39.9618 14.9219 39.5445 14.9219 39.1094V37.4688H34.6094V39.1094C34.6094 39.5445 34.7822 39.9618 35.0899 40.2695C35.3976 40.5772 35.8149 40.75 36.25 40.75H37.8906C38.3257 40.75 38.743 40.5772 39.0507 40.2695C39.3584 39.9618 39.5312 39.5445 39.5312 39.1094V25.9844L36.1187 16.1406Z" fill="black" fill-opacity="0.63"/>
</svg>
