<svg width="32" height="33" viewBox="0 0 32 33" fill="none" xmlns="http://www.w3.org/2000/svg">
<path d="M16 29.3C19.3948 29.3 22.6505 27.9514 25.051 25.551C27.4514 23.1505 28.8 19.8948 28.8 16.5C28.8 13.1052 27.4514 9.8495 25.051 7.44903C22.6505 5.04857 19.3948 3.7 16 3.7C12.6052 3.7 9.3495 5.04857 6.94903 7.44903C4.54857 9.8495 3.2 13.1052 3.2 16.5C3.2 19.8948 4.54857 23.1505 6.94903 25.551C9.3495 27.9514 12.6052 29.3 16 29.3ZM16 0.5C18.1012 0.5 20.1817 0.913852 22.1229 1.71793C24.0641 2.522 25.828 3.70055 27.3137 5.18629C28.7994 6.67203 29.978 8.43586 30.7821 10.3771C31.5861 12.3183 32 14.3989 32 16.5C32 20.7435 30.3143 24.8131 27.3137 27.8137C24.3131 30.8143 20.2435 32.5 16 32.5C7.152 32.5 0 25.3 0 16.5C0 12.2565 1.68571 8.18687 4.68629 5.18629C7.68687 2.18571 11.7565 0.5 16 0.5ZM16.8 8.5V16.9L24 21.172L22.8 23.14L14.4 18.1V8.5H16.8Z" fill="#4B4B4B"/>
</svg>
