<svg width="33" height="33" viewBox="0 0 33 33" fill="none" xmlns="http://www.w3.org/2000/svg">
<path d="M22.8594 11.5H26.9844L31.1094 17.077V25.25H28.3113C28.1457 26.3955 27.573 27.443 26.698 28.2007C25.823 28.9583 24.7043 29.3753 23.5469 29.3753C22.3895 29.3753 21.2708 28.9583 20.3958 28.2007C19.5208 27.443 18.9481 26.3955 18.7825 25.25H11.8113C11.6478 26.3972 11.0759 27.4468 10.2007 28.2062C9.32545 28.9655 8.20561 29.3836 7.04688 29.3836C5.88814 29.3836 4.7683 28.9655 3.89307 28.2062C3.01783 27.4468 2.44596 26.3972 2.2825 25.25H0.859375V8.75C0.859375 8.38533 1.00424 8.03559 1.2621 7.77773C1.51997 7.51987 1.8697 7.375 2.23438 7.375H21.4844C21.849 7.375 22.1988 7.51987 22.4566 7.77773C22.7145 8.03559 22.8594 8.38533 22.8594 8.75V11.5ZM22.8594 14.25V18.375H28.3594V17.9831L25.5984 14.25H22.8594Z" fill="#4B4B4B"/>
</svg>
