<svg width="44" height="48" viewBox="0 0 44 48" fill="none" xmlns="http://www.w3.org/2000/svg">
<path d="M24.6649 3.2028e-07H19.3696C18.3302 -0.000345054 17.3101 0.278642 16.4174 0.807394C15.5246 1.33615 14.7925 2.09496 14.2986 3.00343V20.7481H29.8497V3.25871C29.384 2.28421 28.6497 1.46083 27.732 0.88405C26.8143 0.307272 25.7508 0.000737265 24.6649 3.2028e-07ZM25.8205 15.197H24.1474V16.8589C24.1474 17.4178 23.9239 17.9539 23.526 18.3491C23.1282 18.7443 22.5885 18.9663 22.0259 18.9663C21.4632 18.9663 20.9236 18.7443 20.5257 18.3491C20.1279 17.9539 19.9043 17.4178 19.9043 16.8589V15.197H18.2312C17.0929 15.197 16.1649 14.3095 16.1132 13.1907C16.1331 12.6443 16.3644 12.1265 16.7589 11.7452C17.1534 11.3638 17.6808 11.1483 18.2312 11.1433H19.9043V9.44717C19.9043 8.25642 20.853 7.29526 22.0259 7.29526C23.1988 7.29526 24.1474 8.25642 24.1474 9.44717V11.1433H25.8205C26.9589 11.1433 27.8868 12.0651 27.9403 13.1907C27.9142 13.7317 27.6794 14.2418 27.2847 14.6154C26.89 14.9889 26.3657 15.1972 25.8205 15.197ZM39.8089 20.7481H31.5745V3.65106C36.3075 4.96174 39.7951 9.35637 39.8089 14.5682V20.7481ZM12.5738 20.7481V3.61508C7.76498 4.8795 4.22563 9.30839 4.22563 14.5682V20.7447L12.5738 20.7481ZM4.10489 22.3758H39.8951C41.8959 22.3758 43.5 23.9692 43.5 25.9566C43.5 27.9269 41.8787 29.5374 39.8951 29.5374H36.4661V32.6042C36.4661 35.8389 35.3899 38.8235 33.5719 41.2256C33.7944 41.9914 33.6029 42.8515 32.9975 43.4563C31.5599 44.8981 29.8485 46.0422 27.9625 46.8222C26.0764 47.6021 24.0533 48.0025 22.0103 48C19.9692 47.9982 17.9484 47.5966 16.0636 46.8181C14.1789 46.0396 12.4673 44.8995 11.0266 43.4632C10.7377 43.1755 10.5315 42.8164 10.4293 42.423C10.3271 42.0296 10.3326 41.6161 10.4454 41.2256C8.56289 38.7407 7.54685 35.7141 7.5511 32.6042V29.5374H4.10489C2.12134 29.5374 0.5 27.9269 0.5 25.9566C0.5 23.9863 2.12134 22.3758 4.10489 22.3758ZM33.9755 32.6042V29.5374H10.0418V32.6042C10.0418 35.2222 10.8938 37.6413 12.3375 39.6048C13.0205 39.514 13.7346 39.7299 14.259 40.2507C15.2745 41.2657 16.4819 42.0715 17.8118 42.6216C19.1417 43.1717 20.568 43.4554 22.0086 43.4563C25.034 43.4563 27.7678 42.2399 29.7531 40.2558C30.2757 39.7316 30.995 39.514 31.6797 39.6048C33.1751 37.5733 33.9787 35.1208 33.9738 32.6042" fill="#737BA4"/>
</svg>
