<svg width="48" height="48" viewBox="0 0 48 48" fill="none" xmlns="http://www.w3.org/2000/svg">
<path fill-rule="evenodd" clip-rule="evenodd" d="M24 3H23.948C23.8718 3.00032 23.7957 3.00499 23.72 3.014C23.5645 3.03061 23.4097 3.0533 23.256 3.082C22.7581 3.17965 22.2696 3.32017 21.796 3.502C20.592 3.954 18.926 4.804 16.8 6.4C15.22 7.584 12.646 8.28 10.204 8.648C8.83313 8.84954 7.45122 8.96709 6.066 9H4V24C4 27.312 5.356 30.28 7.2 32.794C9.046 35.304 11.46 37.47 13.8 39.226C16.7116 41.3918 19.834 43.2585 23.12 44.798L23.168 44.818L23.176 44.822L23.22 44.842C23.4743 44.9496 23.748 45.0033 24.0241 44.9999C24.3001 44.9964 24.5725 44.9359 24.824 44.822L24.832 44.818L24.878 44.798C25.1371 44.6797 25.3944 44.5577 25.65 44.432C26.166 44.18 26.898 43.812 27.77 43.332C30.0075 42.1166 32.1562 40.7446 34.2 39.226C36.54 37.47 38.954 35.306 40.8 32.794C42.644 30.28 44 27.312 44 24V9H41.934L41.7 8.994C40.3931 8.95317 39.0896 8.83697 37.796 8.646C35.354 8.28 32.78 7.588 31.2 6.4C29.074 4.804 27.408 3.954 26.202 3.502C25.7283 3.32017 25.2399 3.17965 24.742 3.082C24.5137 3.04203 24.2834 3.01532 24.052 3.002H24.024L24.012 3H24ZM22 14V22H14V26H22V34H26V26H34V22H26V14H22Z" fill="#737BA4"/>
</svg>
