<svg width="51" height="50" viewBox="0 0 51 50" fill="none" xmlns="http://www.w3.org/2000/svg">
<path d="M36.625 12.2H31.975V9.8C31.975 9.58783 31.8933 9.38434 31.748 9.23431C31.6027 9.08429 31.4055 9 31.2 9C30.9945 9 30.7973 9.08429 30.652 9.23431C30.5067 9.38434 30.425 9.58783 30.425 9.8V12.2H19.575V9.8C19.575 9.58783 19.4933 9.38434 19.348 9.23431C19.2027 9.08429 19.0055 9 18.8 9C18.5945 9 18.3973 9.08429 18.252 9.23431C18.1067 9.38434 18.025 9.58783 18.025 9.8V12.2H13.375C12.3477 12.2013 11.3628 12.6231 10.6363 13.373C9.90988 14.1228 9.50123 15.1395 9.5 16.2V37C9.50123 38.0605 9.90988 39.0772 10.6363 39.827C11.3628 40.5769 12.3477 40.9987 13.375 41H36.625C37.6527 41 38.6383 40.5786 39.365 39.8284C40.0917 39.0783 40.5 38.0609 40.5 37V16.2C40.5 15.1391 40.0917 14.1217 39.365 13.3716C38.6383 12.6214 37.6527 12.2 36.625 12.2ZM38.95 37C38.95 37.6365 38.705 38.247 38.269 38.6971C37.833 39.1471 37.2416 39.4 36.625 39.4H13.375C12.7584 39.4 12.167 39.1471 11.731 38.6971C11.295 38.247 11.05 37.6365 11.05 37V23.4H38.95V37ZM38.95 21.8H11.05V16.2C11.05 14.8752 12.0885 13.8 13.375 13.8H18.025V16.2C18.025 16.4122 18.1067 16.6157 18.252 16.7657C18.3973 16.9157 18.5945 17 18.8 17C19.0055 17 19.2027 16.9157 19.348 16.7657C19.4933 16.6157 19.575 16.4122 19.575 16.2V13.8H30.425V16.2C30.425 16.4122 30.5067 16.6157 30.652 16.7657C30.7973 16.9157 30.9945 17 31.2 17C31.4055 17 31.6027 16.9157 31.748 16.7657C31.8933 16.6157 31.975 16.4122 31.975 16.2V13.8H36.625C37.2416 13.8 37.833 14.0529 38.269 14.5029C38.705 14.953 38.95 15.5635 38.95 16.2V21.8Z" fill="#36427C"/>
</svg>
