<svg width="51" height="50" viewBox="0 0 51 50" fill="none" xmlns="http://www.w3.org/2000/svg">
<path d="M8 18.75H43M8 31.25H43M6.75 25C6.75 27.4623 7.23498 29.9005 8.17726 32.1753C9.11953 34.4502 10.5006 36.5172 12.2417 38.2582C13.9828 39.9993 16.0498 41.3805 18.3247 42.3227C20.5995 43.265 23.0377 43.75 25.5 43.75C27.9623 43.75 30.4005 43.265 32.6753 42.3227C34.9502 41.3805 37.0172 39.9993 38.7582 38.2582C40.4993 36.5172 41.8805 34.4502 42.8227 32.1753C43.765 29.9005 44.25 27.4623 44.25 25C44.25 20.0272 42.2746 15.2581 38.7582 11.7417C35.2419 8.22544 30.4728 6.25 25.5 6.25C20.5272 6.25 15.7581 8.22544 12.2417 11.7417C8.72544 15.2581 6.75 20.0272 6.75 25Z" stroke="#36427C" stroke-width="2" stroke-linecap="round" stroke-linejoin="round"/>
<path d="M24.4583 6.25C20.9486 11.8742 19.0879 18.3706 19.0879 25C19.0879 31.6294 20.9486 38.1258 24.4583 43.75M26.5416 6.25C30.0513 11.8742 31.912 18.3706 31.912 25C31.912 31.6294 30.0513 38.1258 26.5416 43.75" stroke="#36427C" stroke-width="2" stroke-linecap="round" stroke-linejoin="round"/>
</svg>
