<svg width="43" height="42" viewBox="0 0 43 42" fill="none" xmlns="http://www.w3.org/2000/svg">
<path d="M16.2492 4.28335C15.9707 4.28335 15.7037 4.39397 15.5068 4.59089C15.3098 4.7878 15.1992 5.05487 15.1992 5.33335V10.4994H9.94922C9.67074 10.4994 9.40367 10.61 9.20676 10.8069C9.00984 11.0038 8.89922 11.2709 8.89922 11.5494V20.0817L5.46782 21.0393C5.32086 21.0803 5.18462 21.153 5.06859 21.2521C4.95255 21.3512 4.85951 21.4744 4.79595 21.6131C4.73238 21.7518 4.69982 21.9027 4.70052 22.0553C4.70122 22.2079 4.73518 22.3585 4.80002 22.4967L8.58422 30.5397C9.04632 29.9823 9.68632 29.6011 10.3965 29.4603L7.22762 22.7277L20.3652 19.0674C21.103 18.8617 21.8829 18.8617 22.6206 19.0674L35.7603 22.7277L32.5263 29.4456C33.2378 29.5638 33.8872 29.9225 34.3659 30.462L38.1984 22.5072C38.2648 22.3688 38.3 22.2175 38.3016 22.064C38.3032 21.9106 38.2712 21.7586 38.2077 21.6189C38.1443 21.4791 38.0509 21.355 37.9343 21.2552C37.8177 21.1554 37.6806 21.0824 37.5327 21.0414L34.0992 20.0838V11.5494C34.0992 11.2709 33.9886 11.0038 33.7917 10.8069C33.5948 10.61 33.3277 10.4994 33.0492 10.4994H27.7992V5.33125C27.7992 5.05277 27.6886 4.7857 27.4917 4.58879C27.2948 4.39187 27.0277 4.28125 26.7492 4.28125L16.2492 4.28335ZM25.6992 10.4994H17.2992V6.38335H25.6992V10.4994ZM31.9992 12.5994V19.4979L23.1813 17.0409C22.0754 16.7328 20.9063 16.7328 19.8003 17.0409L10.9992 19.5V12.5994H31.9992ZM33.024 32.3184L33.0177 32.2974C32.9635 32.0802 32.8412 31.8861 32.6688 31.7433C32.4965 31.6005 32.283 31.5166 32.0595 31.5037C31.8361 31.4908 31.6144 31.5496 31.4267 31.6716C31.2391 31.7936 31.0953 31.9724 31.0164 32.1819L31.0059 32.2029L30.9639 32.31C30.697 32.9122 30.3525 33.477 29.9391 33.99C29.1873 34.914 28.1436 35.6994 26.7492 35.6994C25.3548 35.6994 24.309 34.9119 23.553 33.9858C23.1139 33.4432 22.7521 32.8425 22.4778 32.2008L22.4673 32.1777C22.3911 31.9787 22.2562 31.8076 22.0804 31.6871C21.9047 31.5666 21.6965 31.5025 21.4834 31.5032C21.2703 31.5039 21.0625 31.5693 20.8875 31.6909C20.7126 31.8125 20.5787 31.9845 20.5038 32.184L20.4933 32.205L20.4513 32.3121C20.4093 32.4115 20.3435 32.5487 20.2539 32.7237C20.0225 33.1722 19.7467 33.5964 19.4307 33.99C18.6831 34.914 17.6436 35.6994 16.2492 35.6994C14.8548 35.6994 13.8132 34.9119 13.0614 33.9879C12.6238 33.4451 12.2634 32.8444 11.9904 32.2029L11.982 32.1819C11.9031 31.9724 11.7594 31.7915 11.5717 31.6695C11.3841 31.5475 11.1623 31.4887 10.9389 31.5016C10.7154 31.5145 10.502 31.5984 10.3296 31.7412C10.1572 31.884 10.035 32.0781 9.98072 32.2953L9.97652 32.3121L9.94712 32.4086C9.75615 32.9871 9.47322 33.5309 9.10922 34.0194C8.46452 34.8804 7.43762 35.6994 5.74922 35.6994C5.47074 35.6994 5.20367 35.81 5.00676 36.0069C4.80984 36.2038 4.69922 36.4709 4.69922 36.7494C4.69922 37.0278 4.80984 37.2949 5.00676 37.4918C5.20367 37.6887 5.47074 37.7994 5.74922 37.7994C8.26082 37.7994 9.85892 36.5226 10.7892 35.2794C10.8956 35.138 10.9936 34.9973 11.0832 34.8573C11.1896 35.0071 11.3058 35.159 11.4318 35.313C12.3852 36.489 13.9686 37.7994 16.2492 37.7994C18.5298 37.7994 20.109 36.4848 21.0624 35.3088C21.2192 35.1128 21.362 34.921 21.4908 34.7334C21.6238 34.9238 21.7687 35.117 21.9255 35.313C22.8852 36.4911 24.4686 37.7994 26.7492 37.7994C29.0298 37.7994 30.6132 36.489 31.5666 35.313C31.6884 35.1632 31.8018 35.0148 31.9068 34.8678C31.9978 35.0092 32.0958 35.152 32.2008 35.2962C33.1332 36.5478 34.7355 37.8309 37.2618 37.7994C37.3997 37.7977 37.5359 37.7689 37.6627 37.7146C37.7894 37.6603 37.9043 37.5816 38.0006 37.4829C38.0969 37.3842 38.1729 37.2676 38.2241 37.1395C38.2753 37.0115 38.3009 36.8746 38.2992 36.7368C38.2976 36.5989 38.2688 36.4627 38.2145 36.3359C38.1602 36.2091 38.0814 36.0943 37.9828 35.998C37.8841 35.9017 37.7674 35.8257 37.6394 35.7745C37.5114 35.7232 37.3745 35.6977 37.2366 35.6994C35.5503 35.7204 34.5276 34.9035 33.8871 34.0425C33.5232 33.5493 33.2416 33.0004 33.0534 32.4171L33.024 32.3184Z" fill="#36427C"/>
</svg>
