<svg width="51" height="50" viewBox="0 0 51 50" fill="none" xmlns="http://www.w3.org/2000/svg">
<path fill-rule="evenodd" clip-rule="evenodd" d="M18.2077 24.9993C22.2358 24.9993 25.4994 21.7358 25.4994 17.7077C25.4994 13.6796 22.2358 10.416 18.2077 10.416C14.1796 10.416 10.916 13.6796 10.916 17.7077C10.916 21.7358 14.1796 24.9993 18.2077 24.9993ZM23.416 17.7077C23.416 20.5858 21.0858 22.916 18.2077 22.916C15.3296 22.916 12.9993 20.5858 12.9993 17.7077C12.9993 14.8296 15.3296 12.4993 18.2077 12.4993C21.0858 12.4993 23.416 14.8296 23.416 17.7077ZM4.66602 39.5827V33.7493C4.66602 29.316 13.6879 27.0827 18.2077 27.0827C21.2139 27.0827 26.2129 28.0712 29.2233 30.0379C31.3691 29.4577 33.7223 29.166 35.3952 29.166C37.3306 29.166 39.9275 29.5556 42.0723 30.3431C43.141 30.7368 44.165 31.2535 44.9389 31.9223C45.7191 32.5962 46.3327 33.5077 46.3327 34.6514V39.5827H4.66602ZM6.74935 33.7493C6.74935 33.4191 6.90143 32.9671 7.54727 32.3796C8.20664 31.7796 9.22122 31.1983 10.5056 30.6921C13.0796 29.6764 16.2046 29.166 18.2077 29.166C20.2108 29.166 23.3368 29.6764 25.9087 30.6921C27.1941 31.1983 28.2087 31.7796 28.8671 32.3796C29.5139 32.9671 29.666 33.4191 29.666 33.7493V37.4993H6.74935V33.7493ZM31.0754 31.7389C32.6514 31.4129 34.2316 31.2493 35.3952 31.2493C37.1108 31.2493 39.4608 31.6035 41.3535 32.2993C42.3004 32.6473 43.066 33.0577 43.5775 33.4993C44.0827 33.9358 44.2494 34.3191 44.2494 34.6525V37.4993H31.7494V33.7493C31.7494 33.0202 31.5046 32.3483 31.0754 31.7389ZM41.1244 21.3535C41.1244 24.5191 38.5608 27.0827 35.3952 27.0827C33.8757 27.0827 32.4185 26.4791 31.3441 25.4046C30.2696 24.3302 29.666 22.873 29.666 21.3535C29.666 18.1879 32.2296 15.6243 35.3952 15.6243C38.5608 15.6243 41.1244 18.1879 41.1244 21.3535ZM35.3952 24.9993C37.4098 24.9993 39.041 23.3681 39.041 21.3535C39.041 19.3389 37.4098 17.7077 35.3952 17.7077C34.4282 17.7077 33.5009 18.0918 32.8172 18.7755C32.1335 19.4592 31.7494 20.3866 31.7494 21.3535C31.7494 23.3681 33.3806 24.9993 35.3952 24.9993Z" fill="#36427C"/>
</svg>
