<svg width="51" height="50" viewBox="0 0 51 50" fill="none" xmlns="http://www.w3.org/2000/svg">
<path d="M25.5 43.75C21.7916 43.75 18.1665 42.6503 15.0831 40.5901C11.9996 38.5298 9.59641 35.6014 8.17727 32.1753C6.75812 28.7492 6.38681 24.9792 7.11028 21.3421C7.83376 17.7049 9.61952 14.364 12.2418 11.7418C14.864 9.11952 18.2049 7.33376 21.8421 6.61028C25.4792 5.88681 29.2492 6.25812 32.6753 7.67727C36.1014 9.09641 39.0298 11.4996 41.0901 14.5831C43.1503 17.6665 44.25 21.2916 44.25 25C44.25 29.9728 42.2746 34.742 38.7583 38.2583C35.242 41.7746 30.4728 43.75 25.5 43.75ZM25.5 9.37501C22.4097 9.37501 19.3887 10.2914 16.8192 12.0083C14.2497 13.7252 12.247 16.1655 11.0644 19.0206C9.88177 21.8757 9.57234 25.0173 10.1752 28.0483C10.7781 31.0792 12.2663 33.8634 14.4515 36.0485C16.6367 38.2337 19.4208 39.7219 22.4517 40.3248C25.4827 40.9277 28.6243 40.6182 31.4794 39.4356C34.3345 38.253 36.7748 36.2503 38.4917 33.6808C40.2086 31.1113 41.125 28.0903 41.125 25C41.125 20.856 39.4788 16.8817 36.5485 13.9515C33.6183 11.0212 29.644 9.37501 25.5 9.37501Z" fill="#283B9A"/>
<path d="M31.75 26.5632H25.5C25.0873 26.5578 24.693 26.3914 24.4011 26.0995C24.1092 25.8077 23.9429 25.4134 23.9375 25.0007V14.584C23.9375 14.1696 24.1021 13.7722 24.3951 13.4791C24.6882 13.1861 25.0856 13.0215 25.5 13.0215C25.9144 13.0215 26.3118 13.1861 26.6049 13.4791C26.8979 13.7722 27.0625 14.1696 27.0625 14.584V23.4382H31.75C32.1644 23.4382 32.5618 23.6028 32.8549 23.8958C33.1479 24.1888 33.3125 24.5863 33.3125 25.0007C33.3125 25.4151 33.1479 25.8125 32.8549 26.1055C32.5618 26.3985 32.1644 26.5632 31.75 26.5632Z" fill="#283B9A"/>
</svg>
