<svg width="46" height="45" viewBox="0 0 46 45" fill="none" xmlns="http://www.w3.org/2000/svg">
<path d="M23 23.4375C21.2595 23.4375 19.5903 24.1289 18.3596 25.3596C17.1289 26.5903 16.4375 28.2595 16.4375 30C16.4375 31.7405 17.1289 33.4097 18.3596 34.6404C19.5903 35.8711 21.2595 36.5625 23 36.5625C24.7405 36.5625 26.4097 35.8711 27.6404 34.6404C28.8711 33.4097 29.5625 31.7405 29.5625 30C29.5625 28.2595 28.8711 26.5903 27.6404 25.3596C26.4097 24.1289 24.7405 23.4375 23 23.4375ZM20.1875 30C20.1875 29.2541 20.4838 28.5387 21.0113 28.0113C21.5387 27.4838 22.2541 27.1875 23 27.1875C23.7459 27.1875 24.4613 27.4838 24.9887 28.0113C25.5162 28.5387 25.8125 29.2541 25.8125 30C25.8125 30.7459 25.5162 31.4613 24.9887 31.9887C24.4613 32.5162 23.7459 32.8125 23 32.8125C22.2541 32.8125 21.5387 32.5162 21.0113 31.9887C20.4838 31.4613 20.1875 30.7459 20.1875 30Z" fill="#283B9A"/>
<path d="M33.3612 9.5932L27.4006 1.23633L5.48375 18.7451L4.26875 18.732V18.7507H3.3125V41.2507H42.6875V18.7507H40.8838L37.295 8.25258L33.3612 9.5932ZM36.9219 18.7507H18.1194L32.1237 13.977L34.9775 13.0638L36.9219 18.7507ZM29.6562 10.857L15.2 15.7845L26.6488 6.6382L29.6562 10.857ZM7.0625 34.0676V25.9301C7.85408 25.6507 8.57309 25.1977 9.16682 24.6043C9.76055 24.0109 10.2139 23.2921 10.4937 22.5007H35.5062C35.7858 23.2925 36.2391 24.0116 36.8328 24.6054C37.4266 25.1991 38.1457 25.6524 38.9375 25.932V34.0695C38.1457 34.349 37.4266 34.8023 36.8328 35.396C36.2391 35.9898 35.7858 36.7089 35.5062 37.5007H10.4975C10.2166 36.7089 9.76243 35.9897 9.16816 35.3958C8.57389 34.8018 7.8545 34.3481 7.0625 34.0676Z" fill="#283B9A"/>
</svg>
