<svg width="35" height="29" viewBox="0 0 35 29" fill="none" xmlns="http://www.w3.org/2000/svg">
<path d="M8.77042 27.5842C9.54196 27.5842 10.2819 27.1841 10.8275 26.4718C11.373 25.7596 11.6795 24.7935 11.6795 23.7862C11.6795 22.779 11.373 21.8129 10.8275 21.1007C10.2819 20.3884 9.54196 19.9883 8.77042 19.9883C7.99888 19.9883 7.25894 20.3884 6.71338 21.1007C6.16782 21.8129 5.86133 22.779 5.86133 23.7862C5.86133 24.7935 6.16782 25.7596 6.71338 26.4718C7.25894 27.1841 7.99888 27.5842 8.77042 27.5842ZM25.4977 27.5842C26.2692 27.5842 27.0092 27.1841 27.5547 26.4718C28.1003 25.7596 28.4068 24.7935 28.4068 23.7862C28.4068 22.779 28.1003 21.8129 27.5547 21.1007C27.0092 20.3884 26.2692 19.9883 25.4977 19.9883C24.7262 19.9883 23.9862 20.3884 23.4407 21.1007C22.8951 21.8129 22.5886 22.779 22.5886 23.7862C22.5886 24.7935 22.8951 25.7596 23.4407 26.4718C23.9862 27.1841 24.7262 27.5842 25.4977 27.5842Z" stroke="#283B9A" stroke-width="2" stroke-linejoin="round"/>
<path d="M5.86364 23.7878H1.5V1H22.5909V23.7878M22.5909 23.7878H11.6818M22.5909 23.7878V7.64644H28.8244L33.5 15.7171V23.7878H28.9989" stroke="#283B9A" stroke-width="2" stroke-linecap="round" stroke-linejoin="round"/>
</svg>
