<svg width="46" height="45" viewBox="0 0 46 45" fill="none" xmlns="http://www.w3.org/2000/svg">
<path d="M11.3187 15.3007L18.0875 16.5007H18.1063L14.8625 19.7445L5.84375 18.1507L4.25 9.13196L7.49375 5.90696L8.675 12.6757L10.775 10.5757C12.3392 9.00648 14.1978 7.7614 16.2441 6.91185C18.2904 6.06231 20.4843 5.625 22.7 5.625C24.9157 5.625 27.1096 6.06231 29.1559 6.91185C31.2022 7.7614 33.0608 9.00648 34.625 10.5757C34.6988 10.652 34.7675 10.7301 34.8312 10.8101C34.895 10.8913 34.9638 10.9695 35.0375 11.0445C35.3188 11.3445 35.6 11.6632 35.8625 11.982C36.0313 12.1882 36.2 12.4132 36.3687 12.6382C36.6687 13.0507 36.9312 13.4632 37.1937 13.8945L37.2631 14.0013C37.3044 14.0601 37.3438 14.1245 37.3812 14.1945C37.7273 14.8121 38.0342 15.4508 38.3 16.107L38.3375 16.2007C38.9938 17.8507 39.3875 19.557 39.5187 21.3007L35.6938 20.757C35.5033 19.3919 35.1049 18.064 34.5125 16.8195L34.4 16.5945C34.1246 16.0483 33.8113 15.522 33.4625 15.0195C33.43 14.9832 33.3988 14.9426 33.3688 14.8976C32.953 14.29 32.4823 13.722 31.9625 13.2007C29.503 10.7424 26.168 9.3615 22.6906 9.3615C19.2133 9.3615 15.8782 10.7424 13.4187 13.2007L11.3187 15.3007ZM30.5375 25.257L39.5563 26.8507L39.575 26.8695L41.1688 35.8882L37.925 39.132L36.725 32.3632L34.625 34.4632C28.025 41.0445 17.3375 41.0445 10.7562 34.4632L10.3063 33.957C7.70169 31.1505 6.13388 27.5386 5.8625 23.7195L9.6875 24.2632C10.0625 27.0195 11.3 29.682 13.4187 31.8007C13.85 32.232 14.3187 32.6257 14.7875 32.982C19.925 36.8632 27.275 36.4882 31.9625 31.8007L34.0625 29.7007L27.2938 28.5007L30.5375 25.257Z" fill="#283B9A"/>
</svg>
