<svg width="47" height="46" viewBox="0 0 47 46" fill="none" xmlns="http://www.w3.org/2000/svg">
<path fill-rule="evenodd" clip-rule="evenodd" d="M7.6875 15.525V9.0045L21.3438 5.10313V38.4761L16.2205 34.0831C13.544 31.7888 11.3956 28.9425 9.92267 25.7396C8.44977 22.5368 7.68727 19.0503 7.6875 15.525ZM25.6562 38.4733L30.7795 34.0802C33.4556 31.7862 35.6038 28.9404 37.0767 25.7381C38.5496 22.5357 39.3123 19.0527 39.3125 15.5279V8.99875L25.6562 5.10025V38.4733ZM3.375 5.75L23.5 0L43.625 5.75V15.525C43.6252 19.6725 42.7281 23.7709 40.9951 27.539C39.2622 31.3071 36.7345 34.6557 33.5855 37.3549L23.5 46L13.4145 37.3549C10.2659 34.656 7.73841 31.3079 6.00548 27.5403C4.27256 23.7728 3.3752 19.6749 3.375 15.5279V5.75Z" fill="#283B9A"/>
</svg>
