<svg width="43" height="42" viewBox="0 0 43 42" fill="none" xmlns="http://www.w3.org/2000/svg">
<path d="M33.3125 17.0625C33.3125 13.9296 32.068 10.9251 29.8527 8.7098C27.6374 6.49453 24.6329 5.25 21.5 5.25C18.3671 5.25 15.3626 6.49453 13.1473 8.7098C10.932 10.9251 9.6875 13.9296 9.6875 17.0625C9.6875 21.9083 13.5646 28.224 21.5 35.7892C29.4354 28.224 33.3125 21.9083 33.3125 17.0625ZM21.5 39.375C11.8741 30.6259 7.0625 23.1866 7.0625 17.0625C7.0625 13.2334 8.58359 9.5612 11.2911 6.85365C13.9987 4.14609 17.6709 2.625 21.5 2.625C25.3291 2.625 29.0013 4.14609 31.7089 6.85365C34.4164 9.5612 35.9375 13.2334 35.9375 17.0625C35.9375 23.1866 31.1259 30.6259 21.5 39.375Z" fill="#283B9A"/>
<path d="M21.5 21C22.5443 21 23.5458 20.5852 24.2842 19.8467C25.0227 19.1083 25.4375 18.1068 25.4375 17.0625C25.4375 16.0182 25.0227 15.0167 24.2842 14.2783C23.5458 13.5398 22.5443 13.125 21.5 13.125C20.4557 13.125 19.4542 13.5398 18.7158 14.2783C17.9773 15.0167 17.5625 16.0182 17.5625 17.0625C17.5625 18.1068 17.9773 19.1083 18.7158 19.8467C19.4542 20.5852 20.4557 21 21.5 21ZM21.5 23.625C19.7595 23.625 18.0903 22.9336 16.8596 21.7029C15.6289 20.4722 14.9375 18.803 14.9375 17.0625C14.9375 15.322 15.6289 13.6528 16.8596 12.4221C18.0903 11.1914 19.7595 10.5 21.5 10.5C23.2405 10.5 24.9097 11.1914 26.1404 12.4221C27.3711 13.6528 28.0625 15.322 28.0625 17.0625C28.0625 18.803 27.3711 20.4722 26.1404 21.7029C24.9097 22.9336 23.2405 23.625 21.5 23.625Z" fill="#283B9A"/>
</svg>
