<svg width="41" height="42" viewBox="0 0 41 42" fill="none" xmlns="http://www.w3.org/2000/svg">
<path d="M20.1452 37.2292L9.04102 17.7542V8.35841L20.1452 1.35425L31.2493 8.35841V17.7542L20.1452 37.2292Z" fill="white"/>
<path d="M20.1465 1.35425V8.01675L24.4173 10.5792V15.1917L20.1465 17.7542V37.2292L31.2507 17.7542V8.35841L20.1465 1.35425Z" fill="#BBD8FF"/>
<path d="M27.8333 33.8125H32.9583L39.7917 37.2292L32.9583 40.6458H7.33333L0.5 37.2292L7.33333 33.8125H12.4583" stroke="#092F63" stroke-miterlimit="10" stroke-linecap="round" stroke-linejoin="round"/>
<path d="M20.1452 37.2292L9.04102 17.7542V8.35841L20.1452 1.35425L31.2493 8.35841V17.7542L20.1452 37.2292Z" stroke="#092F63" stroke-miterlimit="10" stroke-linecap="round" stroke-linejoin="round"/>
<path d="M15.875 10.5793L20.1458 8.01685L24.4167 10.5793V15.1918L20.1458 17.7543L15.875 15.1918V10.5793Z" stroke="#092F63" stroke-miterlimit="10" stroke-linecap="round" stroke-linejoin="round"/>
</svg>
