<svg width="42" height="43" viewBox="0 0 42 43" fill="none" xmlns="http://www.w3.org/2000/svg">
<path d="M31.9333 11.6956L28.7444 6.34781L31.9333 1H38.3111L41.5 6.34781L38.3111 11.6956H31.9333ZM37.8556 33.0869L39.6778 27.739H38.7667V22.3912H33.3V27.739H15.0778V24.1738H24.1889V6.34781H0.5V24.1738H9.61111V27.739H0.5L2.32222 33.0869H4.14444L3.28436 41.9304L9.61111 33.0869H30.5667L36.8934 41.9304L36.0333 33.0869H37.8556ZM3.27707 41.9999L3.28436 41.9304L3.23333 41.9999H3.27707ZM36.9444 41.9999L36.8934 41.9304L36.9007 41.9999H36.9444Z" fill="white"/>
<path d="M24.1889 20.6087H0.5L24.1889 6.34783V20.6087ZM1.41111 30.413L2.32222 33.0869H37.8556L38.7667 30.413H1.41111ZM30.758 9.72586L31.9333 11.6956H38.3111L41.5 6.34783L38.814 1.84497L30.758 9.72586Z" fill="#BBD8FF"/>
<path d="M0.5 20.6088H24.1889M20.5444 27.7392V33.087M15.0778 24.174V27.7392M9.61111 24.174V27.7392M8.7 27.7392H15.9889M35.1222 4.66699V7.00042L36.9444 8.13059M35.1222 22.3914V18.8262M36.9444 22.3914L39.6778 18.8262M3.23333 42.0001L9.61111 33.087H4.14444L3.27707 42.0001H3.23333ZM36.9444 42.0001L30.5667 33.087H36.0333L36.9007 42.0001H36.9444ZM24.1889 6.34799H0.5V24.174H24.1889V6.34799ZM38.7667 22.3914H33.3V27.7392H38.7667V22.3914Z" stroke="#092F63" stroke-linecap="round" stroke-linejoin="round"/>
<path d="M31.9333 11.6956L28.7444 6.34781L31.9333 1H38.3111L41.5 6.34781L38.3111 11.6956H31.9333ZM37.8556 33.0869H2.32222L0.5 27.7391H39.6778L37.8556 33.0869Z" stroke="#092F63" stroke-linecap="round" stroke-linejoin="round"/>
</svg>
