<svg width="24" height="25" viewBox="0 0 24 25" fill="none" xmlns="http://www.w3.org/2000/svg">
<path d="M3 6.1C3 5.41044 3.27393 4.74912 3.76152 4.26152C4.24912 3.77393 4.91044 3.5 5.6 3.5H8.4C9.08956 3.5 9.75088 3.77393 10.2385 4.26152C10.7261 4.74912 11 5.41044 11 6.1V8.9C11 9.58956 10.7261 10.2509 10.2385 10.7385C9.75088 11.2261 9.08956 11.5 8.4 11.5H5.6C4.91044 11.5 4.24912 11.2261 3.76152 10.7385C3.27393 10.2509 3 9.58956 3 8.9V6.1ZM3 16.1C3 15.4104 3.27393 14.7491 3.76152 14.2615C4.24912 13.7739 4.91044 13.5 5.6 13.5H8.4C9.08956 13.5 9.75088 13.7739 10.2385 14.2615C10.7261 14.7491 11 15.4104 11 16.1V18.9C11 19.5896 10.7261 20.2509 10.2385 20.7385C9.75088 21.2261 9.08956 21.5 8.4 21.5H5.6C5.25856 21.5 4.92047 21.4327 4.60502 21.3021C4.28958 21.1714 4.00295 20.9799 3.76152 20.7385C3.27393 20.2509 3 19.5896 3 18.9V16.1ZM13 6.1C13 5.41044 13.2739 4.74912 13.7615 4.26152C14.2491 3.77393 14.9104 3.5 15.6 3.5H18.4C18.7414 3.5 19.0795 3.56725 19.395 3.69791C19.7104 3.82858 19.997 4.02009 20.2385 4.26152C20.4799 4.50295 20.6714 4.78958 20.8021 5.10502C20.9327 5.42047 21 5.75856 21 6.1V8.9C21 9.24144 20.9327 9.57953 20.8021 9.89498C20.6714 10.2104 20.4799 10.497 20.2385 10.7385C19.997 10.9799 19.7104 11.1714 19.395 11.3021C19.0795 11.4327 18.7414 11.5 18.4 11.5H15.6C14.9104 11.5 14.2491 11.2261 13.7615 10.7385C13.2739 10.2509 13 9.58956 13 8.9V6.1ZM17 13.5C17.2652 13.5 17.5196 13.6054 17.7071 13.7929C17.8946 13.9804 18 14.2348 18 14.5V16.5H20C20.2652 16.5 20.5196 16.6054 20.7071 16.7929C20.8946 16.9804 21 17.2348 21 17.5C21 17.7652 20.8946 18.0196 20.7071 18.2071C20.5196 18.3946 20.2652 18.5 20 18.5H18V20.5C18 20.7652 17.8946 21.0196 17.7071 21.2071C17.5196 21.3946 17.2652 21.5 17 21.5C16.7348 21.5 16.4804 21.3946 16.2929 21.2071C16.1054 21.0196 16 20.7652 16 20.5V18.5H14C13.7348 18.5 13.4804 18.3946 13.2929 18.2071C13.1054 18.0196 13 17.7652 13 17.5C13 17.2348 13.1054 16.9804 13.2929 16.7929C13.4804 16.6054 13.7348 16.5 14 16.5H16V14.5C16 14.2348 16.1054 13.9804 16.2929 13.7929C16.4804 13.6054 16.7348 13.5 17 13.5Z" fill="#5664B2" fill-opacity="0.78"/>
</svg>
