<svg width="33" height="32" viewBox="0 0 33 32" fill="none" xmlns="http://www.w3.org/2000/svg">
<path fill-rule="evenodd" clip-rule="evenodd" d="M13.8331 3.99935C13.8331 3.64573 13.9736 3.30659 14.2237 3.05654C14.4737 2.80649 14.8128 2.66602 15.1665 2.66602H17.8331C18.1868 2.66602 18.5259 2.80649 18.7759 3.05654C19.026 3.30659 19.1665 3.64573 19.1665 3.99935V5.75935L23.6051 6.49802C24.2275 6.60214 24.7929 6.92362 25.2006 7.4053C25.6083 7.88697 25.8319 8.49763 25.8318 9.12868V13.7047L28.5785 14.6193C28.7972 14.6923 28.9984 14.8099 29.1694 14.9646C29.3404 15.1194 29.4774 15.3079 29.5718 15.5183C29.6661 15.7288 29.7158 15.9565 29.7177 16.1871C29.7195 16.4177 29.6735 16.6461 29.5825 16.858L26.2211 24.702L27.7625 25.474C27.9246 25.5489 28.07 25.6556 28.1901 25.7877C28.3102 25.9199 28.4025 26.0748 28.4616 26.2433C28.5206 26.4118 28.5453 26.5905 28.534 26.7687C28.5227 26.9469 28.4757 27.121 28.3959 27.2807C28.316 27.4404 28.2049 27.5825 28.0691 27.6984C27.9333 27.8144 27.7756 27.9019 27.6054 27.9557C27.4351 28.0096 27.2558 28.0287 27.078 28.0119C26.9002 27.9951 26.7276 27.9428 26.5705 27.858L23.0251 26.086C22.655 25.9011 22.2469 25.8048 21.8331 25.8048C21.4194 25.8048 21.0113 25.9011 20.6411 26.086L18.8851 26.9647C18.1445 27.335 17.3278 27.5278 16.4998 27.5278C15.6718 27.5278 14.8551 27.335 14.1145 26.9647L12.3585 26.086C11.9882 25.9008 11.5798 25.8044 11.1658 25.8044C10.7518 25.8044 10.3434 25.9008 9.97313 26.086L6.42913 27.8594C6.11264 28.0174 5.74632 28.0433 5.41075 27.9313C5.07519 27.8192 4.79787 27.5785 4.6398 27.262C4.48173 26.9455 4.45586 26.5792 4.56788 26.2436C4.67991 25.9081 4.92064 25.6308 5.23713 25.4727L7.6798 24.2513L3.5438 17.014C3.42147 16.7999 3.34816 16.5613 3.32917 16.3155C3.31018 16.0697 3.34598 15.8227 3.43398 15.5923C3.52198 15.362 3.66 15.154 3.83809 14.9835C4.01617 14.8129 4.22987 14.684 4.4638 14.606L7.16647 13.7047V9.12868C7.16634 8.49763 7.39001 7.88697 7.79771 7.4053C8.20541 6.92362 8.77073 6.60214 9.39313 6.49802L13.8331 5.75935V3.99935ZM10.1665 23.2327C11.3153 23.0134 12.5043 23.1779 13.5505 23.7007L15.3051 24.5793C15.6756 24.7647 16.0842 24.8613 16.4985 24.8613C16.9127 24.8613 17.3213 24.7647 17.6918 24.5793L19.4465 23.7007C20.1218 23.3631 20.8611 23.1727 21.6154 23.1421C22.3698 23.1115 23.1221 23.2415 23.8225 23.5233L26.7025 16.806L16.4998 13.406L6.4638 16.75L10.1665 23.2327ZM23.1665 12.8167V9.12868L16.4998 8.01802L9.83313 9.12868V12.8167L15.6558 10.8753C16.2032 10.6929 16.7951 10.6929 17.3425 10.8753L23.1665 12.8167Z" fill="#5664B2" fill-opacity="0.78"/>
</svg>
