<svg width="28" height="29" viewBox="0 0 28 29" fill="none" xmlns="http://www.w3.org/2000/svg">
<path d="M0.875 9.24935H12.25L13.125 10.9993H1.75L0.875 9.24935ZM2.04167 12.7493H13.4167L14.2917 14.4993H2.91667L2.04167 12.7493ZM21 22.0827C21.9683 22.0827 22.75 21.301 22.75 20.3327C22.75 19.3643 21.9683 18.5827 21 18.5827C20.0317 18.5827 19.25 19.3643 19.25 20.3327C19.25 21.301 20.0317 22.0827 21 22.0827ZM22.75 11.5827H19.8333V14.4993H25.0367L22.75 11.5827ZM9.33333 22.0827C10.3017 22.0827 11.0833 21.301 11.0833 20.3327C11.0833 19.3643 10.3017 18.5827 9.33333 18.5827C8.365 18.5827 7.58333 19.3643 7.58333 20.3327C7.58333 21.301 8.365 22.0827 9.33333 22.0827ZM23.3333 9.83268L26.8333 14.4993V20.3327H24.5C24.5 22.2693 22.9367 23.8327 21 23.8327C19.0633 23.8327 17.5 22.2693 17.5 20.3327H12.8333C12.8333 22.2693 11.2583 23.8327 9.33333 23.8327C7.39667 23.8327 5.83333 22.2693 5.83333 20.3327H3.5V16.2493H5.83333V17.9993H6.72C7.36167 17.2877 8.295 16.8327 9.33333 16.8327C10.3717 16.8327 11.305 17.2877 11.9467 17.9993H17.5V7.49935H3.5C3.5 6.20435 4.53833 5.16602 5.83333 5.16602H19.8333V9.83268H23.3333Z" fill="#5664B2" fill-opacity="0.81"/>
</svg>
