<svg width="19" height="25" viewBox="0 0 19 25" fill="none" xmlns="http://www.w3.org/2000/svg">
<path d="M9.10233 0V4.72399H9.5C10.1584 4.72399 10.5163 5.34501 10.5516 5.97665C10.5693 6.29512 10.4986 6.58705 10.344 6.79405C10.1893 7.00637 9.94186 7.16561 9.5 7.16561C9.27907 7.16561 9.00953 7.01699 8.8107 6.77282C8.60744 6.53397 8.48372 6.21019 8.48372 5.9448H7.68837C7.68837 6.52866 7.91814 7.05414 8.24512 7.45223C8.57651 7.84501 9.01395 8.12102 9.5 8.12102C10.1186 8.12102 10.6223 7.85563 10.936 7.431C11.2542 7.00106 11.3779 6.44374 11.347 5.91295C11.294 4.98408 10.7549 4.04565 9.89767 3.82059V0H9.10233ZM6.98581 7.45754L0.898744 12.2611H2.34363L7.41884 8.25372L6.98581 7.45754ZM12.0142 7.45754L11.5812 8.25372L16.6581 12.2611H18.0986L12.0142 7.45754ZM0 13.2166V25H19V13.2166H0ZM1.67907 14.4374H2.47442V23.7792H1.67907V14.4374ZM3.8 14.4374H4.59535V23.7792H3.8V14.4374ZM5.92093 14.4374H6.71628V23.7792H5.92093V14.4374ZM8.04186 14.4374H8.83721V23.7792H8.04186V14.4374ZM10.1628 14.4374H10.9581V23.7792H10.1628V14.4374ZM12.2837 14.4374H13.0791V23.7792H12.2837V14.4374ZM14.4047 14.4374H15.2V23.7792H14.4047V14.4374ZM16.5256 14.4374H17.3209V23.7792H16.5256V14.4374Z" fill="#7B86C3"/>
</svg>
