<svg width="33" height="33" viewBox="0 0 33 33" fill="none" xmlns="http://www.w3.org/2000/svg">
<path d="M16.5 12.375C15.406 12.375 14.3568 12.8096 13.5832 13.5832C12.8096 14.3568 12.375 15.406 12.375 16.5C12.375 17.594 12.8096 18.6432 13.5832 19.4168C14.3568 20.1904 15.406 20.625 16.5 20.625C17.594 20.625 18.6432 20.1904 19.4168 19.4168C20.1904 18.6432 20.625 17.594 20.625 16.5C20.625 15.406 20.1904 14.3568 19.4168 13.5832C18.6432 12.8096 17.594 12.375 16.5 12.375ZM16.5 23.375C14.6766 23.375 12.928 22.6507 11.6386 21.3614C10.3493 20.072 9.625 18.3234 9.625 16.5C9.625 14.6766 10.3493 12.928 11.6386 11.6386C12.928 10.3493 14.6766 9.625 16.5 9.625C18.3234 9.625 20.072 10.3493 21.3614 11.6386C22.6507 12.928 23.375 14.6766 23.375 16.5C23.375 18.3234 22.6507 20.072 21.3614 21.3614C20.072 22.6507 18.3234 23.375 16.5 23.375ZM16.5 6.1875C9.625 6.1875 3.75375 10.4638 1.375 16.5C3.75375 22.5362 9.625 26.8125 16.5 26.8125C23.375 26.8125 29.2463 22.5362 31.625 16.5C29.2463 10.4638 23.375 6.1875 16.5 6.1875Z" fill="#36427C"/>
</svg>
